<svg id="visual" viewBox="0 0 900 900" width="900" height="900" xmlns="http://www.w3.org/2000/svg" xmlns:xlink="http://www.w3.org/1999/xlink" version="1.1"><rect x="0" y="0" width="900" height="900" fill="#212121"></rect><defs><linearGradient id="grad1_0" x1="0%" y1="0%" x2="100%" y2="100%"><stop offset="30%" stop-color="#0ea5e9" stop-opacity="1"></stop><stop offset="70%" stop-color="#0ea5e9" stop-opacity="1"></stop></linearGradient></defs><defs><linearGradient id="grad1_1" x1="0%" y1="0%" x2="100%" y2="100%"><stop offset="30%" stop-color="#0ea5e9" stop-opacity="1"></stop><stop offset="70%" stop-color="#2690c9" stop-opacity="1"></stop></linearGradient></defs><defs><linearGradient id="grad1_2" x1="0%" y1="0%" x2="100%" y2="100%"><stop offset="30%" stop-color="#2f7caa" stop-opacity="1"></stop><stop offset="70%" stop-color="#2690c9" stop-opacity="1"></stop></linearGradient></defs><defs><linearGradient id="grad1_3" x1="0%" y1="0%" x2="100%" y2="100%"><stop offset="30%" stop-color="#2f7caa" stop-opacity="1"></stop><stop offset="70%" stop-color="#32688c" stop-opacity="1"></stop></linearGradient></defs><defs><linearGradient id="grad1_4" x1="0%" y1="0%" x2="100%" y2="100%"><stop offset="30%" stop-color="#31556f" stop-opacity="1"></stop><stop offset="70%" stop-color="#32688c" stop-opacity="1"></stop></linearGradient></defs><defs><linearGradient id="grad1_5" x1="0%" y1="0%" x2="100%" y2="100%"><stop offset="30%" stop-color="#31556f" stop-opacity="1"></stop><stop offset="70%" stop-color="#2e4354" stop-opacity="1"></stop></linearGradient></defs><defs><linearGradient id="grad1_6" x1="0%" y1="0%" x2="100%" y2="100%"><stop offset="30%" stop-color="#293239" stop-opacity="1"></stop><stop offset="70%" stop-color="#2e4354" stop-opacity="1"></stop></linearGradient></defs><defs><linearGradient id="grad1_7" x1="0%" y1="0%" x2="100%" y2="100%"><stop offset="30%" stop-color="#293239" stop-opacity="1"></stop><stop offset="70%" stop-color="#212121" stop-opacity="1"></stop></linearGradient></defs><defs><linearGradient id="grad2_0" x1="0%" y1="0%" x2="100%" y2="100%"><stop offset="30%" stop-color="#0ea5e9" stop-opacity="1"></stop><stop offset="70%" stop-color="#0ea5e9" stop-opacity="1"></stop></linearGradient></defs><defs><linearGradient id="grad2_1" x1="0%" y1="0%" x2="100%" y2="100%"><stop offset="30%" stop-color="#2690c9" stop-opacity="1"></stop><stop offset="70%" stop-color="#0ea5e9" stop-opacity="1"></stop></linearGradient></defs><defs><linearGradient id="grad2_2" x1="0%" y1="0%" x2="100%" y2="100%"><stop offset="30%" stop-color="#2690c9" stop-opacity="1"></stop><stop offset="70%" stop-color="#2f7caa" stop-opacity="1"></stop></linearGradient></defs><defs><linearGradient id="grad2_3" x1="0%" y1="0%" x2="100%" y2="100%"><stop offset="30%" stop-color="#32688c" stop-opacity="1"></stop><stop offset="70%" stop-color="#2f7caa" stop-opacity="1"></stop></linearGradient></defs><defs><linearGradient id="grad2_4" x1="0%" y1="0%" x2="100%" y2="100%"><stop offset="30%" stop-color="#32688c" stop-opacity="1"></stop><stop offset="70%" stop-color="#31556f" stop-opacity="1"></stop></linearGradient></defs><defs><linearGradient id="grad2_5" x1="0%" y1="0%" x2="100%" y2="100%"><stop offset="30%" stop-color="#2e4354" stop-opacity="1"></stop><stop offset="70%" stop-color="#31556f" stop-opacity="1"></stop></linearGradient></defs><defs><linearGradient id="grad2_6" x1="0%" y1="0%" x2="100%" y2="100%"><stop offset="30%" stop-color="#2e4354" stop-opacity="1"></stop><stop offset="70%" stop-color="#293239" stop-opacity="1"></stop></linearGradient></defs><defs><linearGradient id="grad2_7" x1="0%" y1="0%" x2="100%" y2="100%"><stop offset="30%" stop-color="#212121" stop-opacity="1"></stop><stop offset="70%" stop-color="#293239" stop-opacity="1"></stop></linearGradient></defs><g transform="translate(900, 0)"><path d="M0 572.8C-82 573.1 -164.1 573.4 -219.2 529.2C-274.3 484.9 -302.5 396.2 -333 333C-363.6 269.9 -396.6 232.3 -437 181C-477.3 129.8 -525.1 64.9 -572.8 0L0 0Z" fill="#25292d"></path><path d="M0 501.2C-71.8 501.4 -143.6 501.7 -191.8 463C-240 424.3 -264.7 346.7 -291.4 291.4C-318.2 236.1 -347.1 203.2 -382.4 158.4C-417.7 113.5 -459.4 56.8 -501.2 0L0 0Z" fill="#2c3a46"></path><path d="M0 429.6C-61.5 429.8 -123.1 430 -164.4 396.9C-205.7 363.7 -226.8 297.2 -249.8 249.8C-272.7 202.4 -297.5 174.2 -327.7 135.8C-358 97.3 -393.8 48.7 -429.6 0L0 0Z" fill="#304c61"></path><path d="M0 358C-51.3 358.2 -102.5 358.4 -137 330.7C-171.4 303.1 -189 247.6 -208.2 208.2C-227.3 168.7 -247.9 145.2 -273.1 113.1C-298.3 81.1 -328.2 40.6 -358 0L0 0Z" fill="#325f7e"></path><path d="M0 286.4C-41 286.5 -82 286.7 -109.6 264.6C-137.1 242.5 -151.2 198.1 -166.5 166.5C-181.8 134.9 -198.3 116.1 -218.5 90.5C-238.7 64.9 -262.5 32.4 -286.4 0L0 0Z" fill="#31729b"></path><path d="M0 214.8C-30.8 214.9 -61.5 215 -82.2 198.4C-102.9 181.9 -113.4 148.6 -124.9 124.9C-136.4 101.2 -148.7 87.1 -163.9 67.9C-179 48.7 -196.9 24.3 -214.8 0L0 0Z" fill="#2b86b9"></path><path d="M0 143.2C-20.5 143.3 -41 143.3 -54.8 132.3C-68.6 121.2 -75.6 99.1 -83.3 83.3C-90.9 67.5 -99.2 58.1 -109.2 45.3C-119.3 32.4 -131.3 16.2 -143.2 0L0 0Z" fill="#1e9bd9"></path><path d="M0 71.6C-10.3 71.6 -20.5 71.7 -27.4 66.1C-34.3 60.6 -37.8 49.5 -41.6 41.6C-45.5 33.7 -49.6 29 -54.6 22.6C-59.7 16.2 -65.6 8.1 -71.6 0L0 0Z" fill="#0ea5e9"></path></g><g transform="translate(0, 900)"><path d="M0 -572.8C79.4 -569.6 158.8 -566.5 219.2 -529.2C279.5 -491.9 320.8 -420.4 361.3 -361.3C401.9 -302.3 441.6 -255.6 476.7 -197.5C511.8 -139.3 542.3 -69.7 572.8 0L0 0Z" fill="#25292d"></path><path d="M0 -501.2C69.5 -498.4 139 -495.7 191.8 -463C244.6 -430.4 280.7 -367.8 316.2 -316.2C351.6 -264.5 386.4 -223.7 417.1 -172.8C447.9 -121.9 474.5 -60.9 501.2 0L0 0Z" fill="#2c3a46"></path><path d="M0 -429.6C59.6 -427.2 119.1 -424.8 164.4 -396.9C209.6 -368.9 240.6 -315.3 271 -271C301.4 -226.7 331.2 -191.7 357.5 -148.1C383.9 -104.5 406.7 -52.2 429.6 0L0 0Z" fill="#304c61"></path><path d="M0 -358C49.6 -356 99.3 -354 137 -330.7C174.7 -307.4 200.5 -262.7 225.8 -225.8C251.2 -188.9 276 -159.8 298 -123.4C319.9 -87.1 338.9 -43.5 358 0L0 0Z" fill="#325f7e"></path><path d="M0 -286.4C39.7 -284.8 79.4 -283.2 109.6 -264.6C139.8 -245.9 160.4 -210.2 180.7 -180.7C200.9 -151.1 220.8 -127.8 238.4 -98.7C255.9 -69.7 271.1 -34.8 286.4 0L0 0Z" fill="#31729b"></path><path d="M0 -214.8C29.8 -213.6 59.6 -212.4 82.2 -198.4C104.8 -184.4 120.3 -157.6 135.5 -135.5C150.7 -113.4 165.6 -95.9 178.8 -74C191.9 -52.2 203.4 -26.1 214.8 0L0 0Z" fill="#2b86b9"></path><path d="M0 -143.2C19.9 -142.4 39.7 -141.6 54.8 -132.3C69.9 -123 80.2 -105.1 90.3 -90.3C100.5 -75.6 110.4 -63.9 119.2 -49.4C128 -34.8 135.6 -17.4 143.2 0L0 0Z" fill="#1e9bd9"></path><path d="M0 -71.6C9.9 -71.2 19.9 -70.8 27.4 -66.1C34.9 -61.5 40.1 -52.5 45.2 -45.2C50.2 -37.8 55.2 -32 59.6 -24.7C64 -17.4 67.8 -8.7 71.6 0L0 0Z" fill="#0ea5e9"></path></g></svg>