<svg id="visual" viewBox="0 0 900 600" width="900" height="600" xmlns="http://www.w3.org/2000/svg" xmlns:xlink="http://www.w3.org/1999/xlink" version="1.1"><g><g transform="translate(161 343)"><path d="M45.1 -27.9C54.5 -9.7 55.6 11.5 46.7 25.7C37.8 39.9 18.9 47.1 1.4 46.3C-16.1 45.4 -32.1 36.6 -39.2 23.5C-46.3 10.3 -44.5 -7.1 -36.4 -24.6C-28.4 -42 -14.2 -59.4 1.8 -60.5C17.8 -61.5 35.6 -46.2 45.1 -27.9Z" fill="#0ea5e9"></path></g><g transform="translate(280 151)"><path d="M18.8 -9.9C22.7 -4 23.2 4.8 19.5 10.8C15.8 16.7 7.9 19.7 0.9 19.2C-6.1 18.7 -12.2 14.6 -14.8 9.3C-17.4 4 -16.5 -2.5 -13.4 -7.8C-10.4 -13.2 -5.2 -17.4 1.1 -18C7.4 -18.6 14.9 -15.7 18.8 -9.9Z" fill="#0ea5e9"></path></g><g transform="translate(462 446)"><path d="M42.6 -22.2C51.9 -8.5 53.9 11.9 45.6 25.4C37.2 39 18.6 45.7 0.5 45.5C-17.7 45.2 -35.4 37.9 -44 24.2C-52.6 10.5 -52.2 -9.7 -43.3 -23.1C-34.5 -36.6 -17.2 -43.4 -0.3 -43.2C16.7 -43.1 33.3 -36 42.6 -22.2Z" fill="#0ea5e9"></path></g><g transform="translate(801 270)"><path d="M17.5 -10.1C21.5 -3.3 22.5 5.2 19.1 11.7C15.7 18.3 7.9 22.9 0 22.9C-7.8 22.9 -15.5 18.2 -19 11.6C-22.5 5 -21.7 -3.6 -17.8 -10.4C-13.9 -17.2 -7 -22.3 -0.1 -22.2C6.8 -22.2 13.6 -17 17.5 -10.1Z" fill="#0ea5e9"></path></g><g transform="translate(166 498)"><path d="M27.3 -15.3C34.2 -3.7 38 10.2 32.9 20C27.8 29.8 13.9 35.4 -1 36C-15.8 36.5 -31.7 32 -39.1 20.8C-46.5 9.7 -45.6 -8.1 -37.7 -20.2C-29.8 -32.4 -14.9 -39 -2.4 -37.6C10.2 -36.2 20.3 -26.9 27.3 -15.3Z" fill="#0ea5e9"></path></g><g transform="translate(423 279)"><path d="M33.6 -19.4C40.7 -7.1 41.7 8.8 35.1 21.5C28.4 34.2 14.2 43.8 1.3 43.1C-11.6 42.3 -23.3 31.3 -30 18.5C-36.6 5.8 -38.3 -8.6 -32.4 -20.3C-26.6 -31.9 -13.3 -40.8 0 -40.7C13.2 -40.7 26.5 -31.8 33.6 -19.4Z" fill="#0ea5e9"></path></g><g transform="translate(592 359)"><path d="M23.9 -14C28.4 -6.1 27.6 4.7 22.7 12.8C17.8 20.9 8.9 26.3 1 25.7C-6.8 25.1 -13.7 18.5 -18.4 10.4C-23.1 2.4 -25.8 -7 -22.3 -14.3C-18.9 -21.5 -9.5 -26.7 0.1 -26.8C9.7 -26.8 19.5 -21.8 23.9 -14Z" fill="#0ea5e9"></path></g><g transform="translate(616 160)"><path d="M14.9 -9.1C18.1 -3.1 18.6 4 15.7 9.8C12.8 15.7 6.4 20.2 -0.4 20.5C-7.3 20.7 -14.5 16.7 -17.3 10.9C-20.1 5.2 -18.4 -2.2 -14.8 -8.5C-11.1 -14.8 -5.6 -20 0.2 -20.1C5.9 -20.2 11.7 -15.2 14.9 -9.1Z" fill="#0ea5e9"></path></g><g transform="translate(740 481)"><path d="M37.7 -21.5C45.3 -8.6 45.5 8.9 38 22.6C30.5 36.3 15.2 46.2 0.1 46.2C-15.1 46.1 -30.2 36.1 -37.7 22.5C-45.1 8.8 -45 -8.6 -37.5 -21.4C-29.9 -34.2 -15 -42.6 0 -42.6C15 -42.6 30.1 -34.3 37.7 -21.5Z" fill="#0ea5e9"></path></g><g transform="translate(105 159)"><path d="M37.5 -22.1C44.9 -8.8 44.7 8.4 37.2 19.1C29.7 29.8 14.8 33.9 -0.1 33.9C-15 33.9 -29.9 29.9 -35.8 20.2C-41.7 10.5 -38.6 -5 -31.1 -18.3C-23.6 -31.6 -11.8 -42.8 1.6 -43.7C15 -44.7 30.1 -35.4 37.5 -22.1Z" fill="#0ea5e9"></path></g><g transform="translate(822 79)"><path d="M37.6 -21.2C46 -7 48.4 11.2 41.1 23.3C33.9 35.5 16.9 41.7 -0.6 42.1C-18.1 42.4 -36.2 36.9 -44.1 24.3C-52 11.8 -49.7 -7.8 -40.6 -22.3C-31.6 -36.8 -15.8 -46.3 -0.6 -46C14.5 -45.6 29.1 -35.4 37.6 -21.2Z" fill="#0ea5e9"></path></g><g transform="translate(456 112)"><path d="M42.6 -23C51.3 -9.5 51.9 10.4 43.4 22.7C35 35 17.5 39.8 -0.4 40C-18.3 40.2 -36.5 35.9 -43.4 24.5C-50.3 13.1 -45.8 -5.3 -36.7 -19.1C-27.5 -32.8 -13.8 -41.8 1.6 -42.7C16.9 -43.7 33.9 -36.5 42.6 -23Z" fill="#0ea5e9"></path></g></g></svg>
