<?xml version="1.0" standalone="no"?>
<!DOCTYPE svg PUBLIC "-//W3C//DTD SVG 20010904//EN"
 "http://www.w3.org/TR/2001/REC-SVG-20010904/DTD/svg10.dtd">
<svg version="1.0" xmlns="http://www.w3.org/2000/svg"
 width="1024.000000pt" height="1024.000000pt" viewBox="0 0 1024.000000 1024.000000"
 preserveAspectRatio="xMidYMid meet">
<metadata>
Created by potrace 1.14, written by Peter Selinger 2001-2017
</metadata>
<g transform="translate(0.000000,1024.000000) scale(0.100000,-0.100000)"
fill="#000000" stroke="none">
<path d="M5250 9962 c-45 -5 -58 -16 -62 -55 -2 -25 -11 -35 -48 -54 -40 -21
-87 -72 -164 -178 -14 -20 -14 -20 -43 0 -15 11 -68 40 -116 65 -67 34 -94 54
-109 80 -25 42 -108 118 -108 99 0 -19 69 -140 100 -175 14 -16 43 -38 64 -49
22 -11 70 -51 108 -88 56 -55 67 -71 58 -82 -6 -8 -9 -24 -5 -35 l7 -21 -39
19 c-90 46 -271 71 -319 44 -14 -8 -21 -5 -34 12 -33 42 -131 188 -146 218
-27 53 -116 139 -130 125 -3 -2 9 -25 26 -50 16 -25 30 -49 30 -55 0 -5 18
-32 40 -58 22 -27 45 -65 50 -85 5 -19 26 -54 45 -76 25 -30 35 -51 35 -76 0
-23 6 -37 17 -41 15 -6 15 -7 0 -19 -10 -6 -18 -25 -19 -42 -1 -16 -6 -36 -12
-43 -32 -43 -75 -253 -46 -225 7 6 18 9 25 6 21 -8 42 35 70 142 14 55 30 108
35 118 6 10 8 22 5 27 -8 14 21 66 47 84 25 18 70 21 96 6 9 -5 37 -14 61 -21
28 -7 59 -25 87 -52 41 -40 43 -46 54 -127 32 -239 50 -301 113 -376 13 -16
27 -45 31 -65 4 -21 18 -54 33 -75 l26 -39 -12 -260 c-6 -143 -11 -308 -11
-367 0 -60 -2 -108 -4 -108 -19 0 -39 18 -58 51 -12 21 -26 39 -31 39 -11 0
-127 110 -127 121 0 5 -32 48 -71 96 -39 48 -77 102 -85 119 -7 17 -33 61 -58
98 -24 36 -52 88 -62 114 -25 71 -50 128 -94 217 -22 44 -44 92 -50 108 -5 15
-15 27 -21 27 -18 0 -6 -232 15 -305 19 -64 54 -141 113 -245 43 -78 129 -206
143 -215 6 -3 17 -22 25 -42 8 -19 34 -56 57 -82 24 -26 53 -69 66 -94 13 -26
29 -53 37 -60 21 -21 116 -195 137 -251 28 -73 38 -107 43 -141 3 -16 7 -41
10 -55 17 -79 20 -126 19 -330 -1 -184 -5 -247 -23 -345 -12 -66 -24 -133 -27
-150 -11 -71 -32 -140 -41 -138 -11 2 -116 65 -157 93 -62 42 -116 85 -116 91
0 4 -15 16 -32 27 -58 35 -262 224 -308 285 -46 61 -50 66 -106 152 -27 41
-66 134 -91 216 -3 10 19 34 64 70 159 127 263 283 263 394 0 42 -8 68 -36
121 -51 96 -103 169 -170 241 -33 34 -95 105 -139 158 -44 54 -129 149 -188
213 -117 127 -176 210 -221 312 -16 36 -32 72 -37 80 -25 42 -83 172 -100 227
-31 95 -63 153 -110 203 -33 35 -43 41 -46 28 -3 -9 1 -27 7 -38 6 -12 22 -56
35 -99 13 -43 32 -96 44 -119 12 -23 22 -49 24 -59 4 -23 54 -157 75 -203 10
-19 27 -48 40 -63 32 -41 28 -47 -25 -40 l-48 6 35 -32 c50 -47 111 -88 159
-107 47 -19 53 -39 14 -47 -16 -3 -37 -13 -48 -21 -19 -14 -16 -15 38 -16 71
0 122 -20 159 -63 32 -36 47 -67 91 -187 21 -58 42 -95 66 -120 61 -61 198
-213 238 -264 47 -61 48 -97 5 -187 -42 -88 -129 -178 -212 -219 l-64 -32 -21
24 c-26 31 -109 98 -122 98 -12 0 -183 178 -283 294 -41 48 -87 94 -102 101
-29 16 -107 104 -131 150 -42 79 -51 106 -57 187 -3 48 -9 90 -12 94 -10 10
-25 -27 -38 -94 -10 -50 -10 -72 -1 -105 7 -23 15 -50 17 -59 6 -19 -23 -26
-41 -10 -6 5 -28 14 -50 20 -50 14 -137 98 -171 165 -34 65 -51 188 -38 267 6
33 8 60 7 60 -11 0 -69 -34 -75 -44 -4 -6 -10 -35 -14 -64 -12 -94 45 -266
114 -348 20 -24 132 -75 218 -99 48 -14 68 -26 95 -57 57 -68 122 -128 158
-145 18 -9 45 -34 60 -54 14 -21 31 -38 38 -39 18 0 100 -109 134 -177 16 -34
41 -72 55 -85 44 -41 139 -171 182 -249 23 -41 49 -107 58 -145 8 -38 29 -100
45 -137 31 -75 37 -106 17 -89 -7 5 -38 15 -68 21 -82 17 -492 147 -710 226
-77 27 -273 120 -300 141 -8 6 -37 20 -65 30 -48 17 -86 44 -181 128 -24 21
-57 46 -73 55 -31 17 -90 70 -128 115 -13 14 -29 26 -37 26 -7 0 -31 20 -52
44 -69 79 -90 100 -143 151 -29 28 -61 66 -72 85 l-18 35 -1 -62 c0 -51 6 -73
36 -132 20 -39 50 -84 67 -99 17 -15 61 -56 98 -92 133 -130 216 -203 248
-220 20 -10 29 -20 23 -24 -6 -3 -13 -3 -16 2 -3 5 -87 8 -188 6 -191 -2 -247
-10 -338 -53 -69 -32 -185 -130 -226 -191 -21 -30 -51 -72 -69 -92 -17 -20
-41 -58 -54 -85 -13 -26 -29 -55 -36 -63 -30 -36 -86 -199 -95 -273 -5 -43
-12 -82 -15 -87 -8 -13 -4 -13 38 5 20 8 49 15 65 15 88 0 225 -67 345 -168
56 -47 170 -125 230 -157 21 -11 61 -38 88 -61 28 -23 70 -51 95 -63 24 -12
49 -31 54 -42 6 -10 23 -25 38 -33 29 -15 102 -80 102 -92 0 -3 -15 -3 -32 1
-60 13 -222 37 -285 42 -108 8 -310 -32 -513 -103 l-105 -37 -220 -1 c-199 -1
-223 1 -248 18 -32 22 -42 17 -34 -16 5 -17 29 -34 89 -63 79 -37 88 -40 178
-40 52 0 107 3 123 8 15 4 27 4 27 -1 0 -4 -22 -38 -49 -76 -27 -37 -54 -88
-61 -114 -6 -25 -42 -109 -81 -188 -65 -134 -77 -172 -63 -208 7 -19 57 -21
72 -3 5 6 24 46 42 87 60 138 179 370 211 410 40 50 119 102 189 124 30 10 78
26 105 36 65 24 148 41 157 32 10 -10 -59 -116 -82 -124 -43 -16 -102 -140
-120 -252 -20 -122 11 -156 90 -102 26 17 41 40 59 87 13 35 30 78 38 94 8 17
17 49 20 73 5 38 3 44 -14 48 -20 6 -20 8 -7 67 29 126 62 149 189 133 17 -3
51 -7 78 -10 58 -8 198 -40 288 -66 69 -21 225 -117 305 -189 22 -20 60 -53
85 -73 51 -43 252 -178 289 -194 48 -21 195 -97 209 -108 13 -10 105 -45 176
-66 17 -4 62 -20 100 -35 39 -15 91 -33 118 -40 78 -23 269 -85 321 -106 27
-10 56 -19 64 -19 9 0 32 -11 51 -23 20 -13 67 -43 104 -67 48 -30 76 -56 95
-89 15 -25 32 -53 37 -62 105 -172 129 -306 123 -684 l-4 -230 -37 -70 c-35
-66 -87 -145 -125 -190 -10 -11 -36 -47 -58 -80 -23 -33 -63 -83 -90 -112 -27
-29 -85 -91 -129 -138 -44 -47 -152 -160 -240 -251 -230 -238 -248 -258 -271
-316 l-22 -53 -93 -12 c-148 -19 -275 -56 -387 -112 -34 -17 -72 -31 -84 -31
-13 0 -53 -20 -90 -45 -37 -25 -70 -45 -73 -45 -3 0 -30 -19 -59 -42 -30 -24
-66 -51 -80 -61 -14 -10 -56 -55 -94 -100 -89 -106 -147 -216 -122 -232 27
-17 72 11 161 98 107 106 295 235 379 262 30 10 78 28 105 40 113 50 188 71
290 81 l67 7 -6 -59 c-4 -32 -12 -81 -19 -109 -7 -30 -12 -119 -12 -222 0
-202 13 -184 -145 -208 -209 -32 -251 -44 -385 -110 l-130 -64 -62 -83 c-58
-79 -97 -155 -107 -213 -5 -27 8 -35 18 -10 3 8 25 27 50 42 24 15 59 46 76
68 59 75 213 157 335 180 50 9 127 25 172 36 78 18 163 25 163 13 0 -7 -53
-84 -99 -144 -19 -25 -47 -74 -63 -110 -16 -36 -34 -73 -39 -82 -10 -20 -12
-101 -3 -111 4 -3 23 2 44 13 38 19 68 60 128 172 17 32 49 81 70 110 21 29
44 63 51 76 17 32 37 27 54 -16 19 -48 127 -192 144 -192 7 0 13 -4 13 -8 0
-12 -44 -52 -56 -52 -6 0 -28 -19 -51 -42 -128 -134 -150 -163 -166 -220 -17
-59 -32 -158 -24 -158 7 0 15 9 87 90 72 81 116 126 176 176 67 56 212 154
228 154 7 0 39 17 72 39 32 21 100 64 149 96 112 73 167 117 184 149 7 13 23
29 36 36 12 6 35 32 50 56 15 24 32 44 36 44 5 0 9 -85 9 -190 0 -177 -1 -191
-20 -210 -11 -11 -20 -24 -20 -29 0 -5 -17 -24 -39 -43 -21 -18 -50 -52 -65
-76 -15 -24 -33 -45 -40 -48 -20 -8 -85 -114 -146 -239 -59 -120 -59 -119 -67
-186 -5 -42 -3 -48 30 -79 20 -18 38 -43 40 -54 3 -16 5 -14 6 7 2 41 42 116
115 216 36 50 66 94 66 98 0 5 28 43 63 85 34 42 70 88 80 102 10 14 22 26 27
26 9 0 2 -66 -10 -88 -4 -8 -5 -25 -2 -38 3 -18 11 -24 29 -24 l24 0 -22 -31
c-20 -29 -21 -39 -17 -159 5 -114 9 -134 33 -182 28 -55 68 -94 86 -83 7 5 6
11 -2 21 -28 34 -17 326 12 308 5 -2 18 -37 29 -77 12 -40 36 -94 54 -122 62
-93 66 -108 49 -162 -30 -98 1 -272 50 -281 15 -3 17 11 17 120 0 156 46 392
109 553 36 94 42 73 40 -136 -1 -184 3 -229 21 -229 14 0 43 111 60 224 6 38
13 73 16 78 3 5 0 50 -6 101 -6 50 -10 111 -8 134 l3 43 53 -43 c28 -23 73
-71 98 -107 26 -36 61 -81 79 -100 18 -19 47 -70 65 -113 18 -43 39 -84 46
-92 21 -20 73 0 85 33 15 38 -15 150 -65 245 -23 43 -55 106 -71 138 -26 53
-60 93 -209 250 l-34 36 -4 207 c-2 113 -1 206 2 206 3 0 16 -17 30 -37 37
-56 178 -191 240 -231 30 -20 78 -53 106 -74 27 -20 79 -51 115 -67 35 -16 73
-38 83 -50 11 -12 23 -21 28 -21 15 0 170 -115 211 -156 21 -22 46 -55 56 -74
11 -19 29 -54 41 -77 22 -44 41 -48 68 -15 57 72 -93 320 -230 380 -16 6 -28
19 -28 30 0 10 31 49 68 87 38 39 73 85 80 103 6 18 18 42 26 53 14 21 15 20
39 -17 13 -22 27 -49 31 -61 4 -11 18 -28 31 -37 15 -10 27 -30 31 -53 9 -49
21 -71 69 -127 107 -125 109 -126 120 -53 5 37 1 53 -42 134 -26 50 -76 138
-111 195 -35 57 -58 104 -52 106 6 2 37 -5 68 -17 31 -11 113 -30 182 -42 138
-23 192 -41 260 -84 25 -16 66 -40 92 -53 26 -13 55 -37 66 -55 31 -53 83
-107 102 -107 24 0 33 15 22 37 -5 10 -17 36 -27 58 -21 50 -115 195 -126 195
-4 0 -37 20 -73 45 -65 44 -119 71 -160 79 -11 3 -61 14 -111 26 -49 12 -120
25 -157 29 -36 5 -83 17 -105 27 l-38 19 -7 160 c-3 88 -14 196 -23 240 -38
175 -38 175 42 163 74 -12 155 -37 268 -83 50 -21 106 -42 125 -47 87 -24 334
-202 445 -322 23 -25 91 -66 98 -60 2 3 1 25 -4 49 -12 64 -62 156 -103 188
-20 15 -36 33 -36 40 0 7 -23 32 -51 56 -70 60 -298 211 -319 211 -9 0 -47 14
-84 30 -130 59 -232 91 -341 106 -98 13 -112 18 -132 41 -12 15 -20 29 -18 31
10 10 -32 70 -89 128 -33 33 -80 81 -103 105 -23 24 -53 54 -65 66 -13 13 -67
69 -120 125 -54 57 -129 135 -167 173 -37 39 -76 85 -85 103 -9 17 -21 32 -26
32 -13 0 -119 141 -163 219 -21 36 -44 71 -51 76 -26 20 -56 91 -63 150 -13
103 -6 541 11 625 24 126 58 206 141 334 47 72 253 190 375 215 25 5 79 22
121 39 42 16 98 34 124 41 27 7 76 24 109 38 34 14 84 31 111 38 58 16 337
144 420 193 64 38 144 92 149 101 3 5 30 22 59 39 28 16 72 48 97 72 68 63
147 120 219 158 37 18 70 38 75 43 6 5 18 9 28 9 10 0 26 4 36 9 40 21 262 52
388 54 143 2 171 -6 158 -47 -4 -12 -7 -43 -6 -70 1 -35 -5 -58 -20 -79 -28
-40 -21 -132 16 -206 27 -52 100 -131 122 -131 6 0 19 -9 30 -21 19 -21 19
-20 30 68 12 98 2 150 -41 208 -12 16 -33 49 -45 73 -13 23 -31 42 -39 42 -14
1 -14 2 -1 13 21 16 23 67 3 67 -10 0 -13 6 -9 16 3 9 6 20 6 25 0 25 172 -19
234 -61 98 -66 221 -212 249 -294 5 -17 13 -35 17 -41 4 -5 11 -26 15 -45 4
-19 11 -41 16 -50 4 -8 20 -42 34 -75 17 -41 35 -65 56 -77 63 -37 96 -13 61
44 -11 18 -28 62 -38 98 -19 71 -77 210 -106 252 -10 14 -18 29 -18 33 0 3
-21 35 -46 71 l-46 64 39 0 c126 -2 252 -56 343 -149 51 -53 77 -71 105 -77
42 -8 102 8 136 35 51 41 15 204 -52 231 -25 11 -34 9 -76 -17 -79 -48 -108
-56 -170 -49 -32 4 -78 18 -103 32 -25 14 -67 31 -95 38 -27 7 -51 18 -52 23
-5 14 106 33 189 33 75 0 154 24 169 51 12 23 10 23 -82 0 -45 -11 -148 -23
-260 -30 l-186 -12 -104 39 c-207 79 -322 97 -546 88 -87 -4 -177 -11 -201
-15 -23 -5 -44 -5 -47 -1 -7 12 107 115 152 139 23 11 44 25 47 30 4 5 25 19
49 30 23 11 74 45 112 76 39 30 89 63 113 74 23 11 64 40 90 64 66 62 199 144
279 173 38 14 98 28 136 31 78 7 76 3 47 113 -11 41 -25 100 -32 130 -8 36
-25 71 -49 102 -20 26 -47 68 -60 95 -27 57 -165 226 -188 232 -9 2 -28 13
-42 25 -41 35 -148 83 -214 98 -40 9 -123 12 -249 11 -177 -2 -187 -1 -165 14
13 9 52 44 86 77 35 33 74 66 87 73 14 7 27 22 31 32 3 11 39 51 80 90 41 38
82 85 91 103 9 18 39 57 65 86 69 75 66 103 -5 61 -19 -11 -40 -18 -46 -14
-19 12 -145 -101 -175 -157 -8 -14 -29 -35 -47 -46 -18 -12 -60 -48 -93 -82
-33 -33 -74 -67 -90 -75 -17 -8 -59 -40 -94 -70 -34 -31 -82 -65 -104 -76 -23
-12 -55 -31 -72 -44 -40 -29 -182 -100 -220 -109 -16 -4 -52 -18 -80 -30 -113
-53 -146 -66 -165 -66 -11 0 -34 -6 -52 -14 -18 -8 -67 -24 -108 -36 -41 -12
-100 -30 -130 -40 -30 -10 -71 -21 -90 -25 -19 -4 -57 -15 -85 -25 -27 -10
-69 -21 -92 -25 l-43 -7 35 97 c19 53 43 128 54 168 20 76 76 197 91 197 5 0
16 13 24 28 8 15 33 47 56 71 23 24 48 58 56 77 8 19 41 61 74 94 33 33 60 65
60 71 0 6 31 43 68 83 38 39 85 93 105 119 44 60 112 114 152 123 107 23 221
95 272 172 l38 57 1 150 c1 82 4 177 8 210 l6 60 -31 -35 c-60 -68 -69 -98
-69 -223 0 -137 -17 -202 -66 -257 -34 -38 -45 -42 -131 -55 l-43 -7 0 71 c0
64 -3 73 -31 106 -18 21 -40 35 -54 35 l-22 0 18 -38 c11 -21 22 -68 25 -103
l6 -65 -51 -69 c-29 -38 -62 -76 -75 -85 -12 -8 -44 -40 -69 -70 -26 -30 -77
-86 -115 -125 -37 -38 -77 -81 -88 -95 -12 -14 -49 -47 -83 -73 -34 -27 -67
-60 -74 -74 -6 -14 -29 -34 -51 -43 -56 -26 -70 -21 -215 75 -46 31 -65 50
-80 85 -34 79 -35 110 -7 201 21 70 34 93 77 139 55 59 129 152 129 164 0 3
25 48 56 99 31 51 64 113 73 139 12 35 27 54 58 75 63 42 243 221 243 242 0
10 3 21 7 25 10 9 10 9 11 136 l2 105 43 23 c61 32 81 70 73 135 -4 28 -12 57
-18 64 -7 9 3 27 37 68 26 30 51 55 56 55 5 0 13 9 19 20 23 42 -21 20 -79
-41 -40 -42 -64 -60 -75 -56 -8 3 -18 2 -22 -4 -3 -6 -12 -8 -19 -5 -7 2 -22
-4 -34 -15 -17 -16 -21 -32 -21 -77 0 -47 -5 -65 -26 -93 -25 -33 -26 -38 -20
-130 6 -83 4 -99 -12 -120 -10 -13 -31 -51 -47 -84 -16 -33 -45 -80 -65 -105
-19 -25 -58 -78 -85 -118 -27 -40 -84 -106 -125 -146 -42 -39 -97 -97 -121
-126 -25 -30 -57 -68 -72 -84 -15 -16 -27 -34 -27 -41 0 -7 -8 -19 -18 -29
-27 -24 -98 -173 -112 -235 -35 -154 29 -288 203 -423 43 -33 81 -108 72 -140
-56 -181 -295 -475 -494 -607 -20 -13 -54 -41 -76 -62 -48 -45 -146 -119 -158
-119 -5 0 -22 -9 -38 -20 l-28 -21 -16 30 c-8 17 -18 52 -21 78 -3 27 -12 91
-21 143 -23 142 -22 636 2 745 9 43 23 91 30 106 8 14 19 48 26 75 7 27 25 69
40 94 65 107 129 218 129 225 0 4 30 43 66 88 36 45 77 101 92 124 15 23 55
83 89 133 35 50 66 102 69 115 3 14 10 27 14 30 5 3 17 24 28 48 79 168 107
273 116 433 7 114 -1 157 -30 168 -18 7 -44 -3 -45 -18 -1 -6 -2 -24 -4 -41
-5 -58 -26 -185 -36 -217 -6 -18 -12 -44 -15 -58 -11 -53 -111 -255 -151 -303
-12 -16 -23 -34 -23 -41 0 -11 -67 -104 -134 -187 -11 -15 -34 -44 -51 -65
-16 -21 -56 -65 -87 -96 -31 -32 -69 -77 -85 -100 -38 -56 -53 -59 -54 -11 -1
21 -2 52 -4 68 -2 17 -7 158 -10 315 -4 157 -11 300 -17 318 -12 41 6 96 29
87 48 -18 96 -17 155 5 34 12 70 31 82 41 11 11 24 19 30 19 5 0 30 10 55 21
63 30 131 96 131 129 0 26 -42 80 -63 80 -7 0 -41 -18 -77 -39 -36 -22 -96
-55 -135 -74 -38 -19 -90 -51 -115 -72 -52 -43 -80 -56 -108 -48 -11 3 -52 46
-90 96 -72 96 -116 202 -129 306 -5 46 21 229 37 260 5 9 14 38 20 66 6 27 25
69 41 93 16 23 29 45 29 47 0 3 17 28 37 56 43 60 132 109 198 109 39 0 75 14
64 24 -8 8 -141 21 -179 18z m1450 -748 c0 -6 -15 -23 -34 -38 -29 -22 -36
-23 -46 -11 -15 18 -6 62 17 88 16 16 17 16 40 -5 13 -12 23 -27 23 -34z m800
-1804 c0 -5 -5 -10 -11 -10 -5 0 -7 5 -4 10 3 6 8 10 11 10 2 0 4 -4 4 -10z
m-4820 -105 c47 -3 105 -12 130 -20 203 -61 264 -83 329 -117 152 -82 416
-179 656 -244 55 -14 112 -31 126 -36 15 -5 53 -15 85 -22 71 -16 229 -64 252
-76 10 -5 73 -36 142 -69 69 -33 142 -75 162 -93 20 -18 69 -55 107 -83 39
-27 71 -55 71 -60 0 -6 36 -46 79 -89 44 -44 82 -90 85 -102 4 -13 19 -45 34
-71 52 -89 64 -152 69 -348 4 -134 -6 -345 -24 -493 l-6 -53 -156 2 c-212 3
-339 14 -462 40 -127 26 -118 23 -152 37 -16 7 -31 12 -33 12 -3 0 -28 10 -55
22 -40 16 -59 34 -90 79 -21 32 -39 63 -39 69 0 7 -11 44 -24 83 -34 100 -45
174 -46 312 -1 103 12 183 31 196 8 5 32 14 54 20 22 6 57 20 77 32 48 26 58
17 24 -23 -21 -25 -26 -42 -26 -83 0 -66 22 -147 50 -187 35 -49 102 -74 137
-52 15 9 -3 91 -36 164 -28 64 -61 146 -61 152 0 13 74 36 147 46 75 10 79 9
152 -21 42 -17 87 -41 101 -53 38 -34 161 -122 195 -139 17 -8 53 -18 80 -21
l50 -7 -53 27 c-30 14 -89 58 -132 98 -103 94 -148 129 -190 149 -43 20 -114
36 -157 37 -32 0 -33 1 -33 43 0 23 -9 75 -20 115 -11 39 -20 86 -20 104 0 55
-16 66 -30 22 -12 -36 -8 -202 6 -238 4 -11 -6 -18 -38 -26 -62 -16 -91 -27
-205 -82 -56 -28 -104 -56 -107 -64 -11 -29 -24 -12 -31 39 -10 71 -26 107
-71 156 -61 68 -87 76 -255 76 -113 0 -150 3 -164 15 -9 8 -29 16 -44 18 -14
2 -41 12 -59 23 -18 10 -54 24 -80 30 -26 6 -74 20 -106 30 -33 11 -83 19
-112 19 -29 0 -56 5 -59 10 -4 7 -14 5 -28 -5 -27 -19 -47 -19 -47 0 0 8 -4
15 -10 15 -5 0 -10 -12 -10 -27 0 -18 -17 -49 -46 -87 -43 -55 -63 -102 -64
-150 0 -11 16 5 40 42 49 77 113 135 156 143 65 11 278 -58 341 -112 17 -15
61 -37 97 -49 54 -18 72 -20 98 -11 18 6 62 12 99 13 84 2 141 -29 172 -93 21
-45 27 -156 13 -239 -7 -45 -35 -457 -33 -490 2 -18 -2 -24 -13 -21 -75 20
-105 32 -173 70 -43 24 -91 54 -105 66 -15 12 -44 30 -65 40 -22 10 -62 40
-90 68 -28 27 -73 65 -101 84 -28 19 -62 48 -74 64 -13 16 -49 47 -80 68 -32
21 -70 53 -87 71 -35 38 -299 238 -329 250 -12 4 -45 29 -75 55 -30 26 -80 63
-110 82 -31 20 -82 59 -115 87 -58 51 -91 72 -221 143 -88 47 -123 61 -157 62
-34 1 -36 22 -9 67 10 17 22 41 26 54 4 13 22 46 40 74 18 28 37 67 44 86 10
34 82 121 161 200 60 59 215 94 365 84 28 -2 88 -6 135 -9z m5300 -21 c38 -8
74 -22 81 -30 6 -8 17 -14 23 -14 20 0 154 -144 161 -172 4 -15 13 -32 21 -39
8 -6 14 -17 14 -23 0 -6 10 -22 21 -36 40 -50 66 -96 80 -142 7 -27 17 -48 21
-48 4 0 8 -6 8 -12 -1 -14 -56 -42 -104 -54 -54 -13 -215 -102 -270 -149 -30
-26 -74 -59 -98 -72 -24 -14 -46 -31 -50 -38 -5 -7 -47 -39 -95 -71 -159 -104
-178 -117 -213 -149 -19 -17 -52 -40 -73 -51 -21 -10 -75 -54 -120 -96 -45
-43 -87 -78 -94 -78 -6 0 -25 -17 -41 -37 -17 -21 -51 -54 -76 -73 -26 -19
-81 -64 -124 -99 -148 -122 -342 -238 -428 -256 -31 -6 -32 -5 -38 37 -3 24
-8 117 -12 208 -3 91 -12 203 -21 249 -18 100 -11 157 25 224 36 67 81 104
136 112 25 4 54 4 63 -1 27 -11 212 -11 210 1 -2 11 19 11 44 1 13 -6 21 9 43
78 14 46 29 99 33 116 3 18 12 34 21 37 17 7 100 -18 157 -46 l40 -20 -35 -2
c-34 -1 -34 -1 10 -10 25 -4 63 -14 85 -21 50 -15 152 -88 177 -125 26 -40 22
-21 -8 43 -30 64 -128 149 -209 182 -85 35 -274 37 -307 4 -6 -6 -16 -37 -22
-69 -11 -52 -15 -59 -41 -64 -49 -11 -115 -10 -115 1 0 16 33 78 74 139 20 29
39 65 43 80 6 27 16 46 72 139 33 56 58 138 46 150 -9 9 -50 -40 -99 -120 -67
-106 -116 -136 -207 -124 -40 6 -49 4 -49 -9 0 -13 20 -29 104 -80 15 -9 14
-18 -13 -95 l-29 -85 -72 -3 c-40 -1 -84 -9 -99 -16 -14 -7 -38 -16 -54 -20
-41 -10 -101 -69 -130 -129 -59 -118 -60 -123 -63 -305 -2 -95 -6 -184 -8
-198 -6 -33 -45 -154 -55 -174 -5 -9 -12 -31 -16 -50 -4 -19 -18 -49 -30 -66
-34 -45 -176 -115 -265 -130 -14 -2 -57 -10 -96 -18 -150 -31 -499 -47 -547
-25 -24 11 -26 18 -34 108 -4 53 -8 209 -8 346 0 234 2 255 23 324 13 40 34
91 48 112 13 21 24 41 24 44 0 10 44 69 98 129 28 33 52 63 52 67 0 4 29 28
65 54 36 25 65 50 65 54 0 16 294 186 340 197 5 1 20 7 80 31 40 17 71 26 260
76 74 20 164 46 200 58 36 11 97 29 135 40 113 30 213 67 320 117 283 135 351
161 439 169 27 3 95 11 150 18 142 18 275 18 356 -1z m-3710 -983 c0 -12 -20
-25 -27 -18 -7 7 6 27 18 27 5 0 9 -4 9 -9z m608 -3013 c30 -132 52 -238 52
-254 0 -7 -19 -23 -42 -35 -55 -28 -182 -114 -199 -136 -8 -9 -30 -23 -50 -32
-33 -15 -191 -151 -248 -215 -14 -15 -49 -54 -78 -85 -96 -104 -201 -379 -179
-466 4 -14 12 -25 19 -25 17 0 53 38 66 70 15 33 24 49 105 160 134 185 395
433 531 503 64 33 101 42 110 27 13 -21 5 -159 -15 -253 -52 -245 -117 -409
-228 -577 -55 -83 -200 -239 -254 -273 -15 -9 -54 -41 -86 -70 -33 -29 -77
-61 -98 -72 -22 -11 -45 -28 -52 -37 -17 -23 -42 -23 -42 0 0 10 -16 42 -36
72 -116 179 -156 355 -135 587 11 112 31 227 48 273 4 8 5 19 4 24 -1 4 2 13
7 20 5 6 15 34 22 61 17 63 78 154 151 225 149 145 222 212 243 221 12 6 31
24 40 40 10 17 47 54 83 84 36 30 73 67 83 82 9 15 45 57 78 93 34 36 62 68
62 73 0 4 4 7 8 7 5 0 18 -42 30 -92z m691 -68 c14 -18 42 -45 62 -60 21 -15
57 -51 79 -79 23 -29 62 -65 88 -81 26 -16 61 -49 79 -73 17 -25 56 -61 87
-82 31 -20 56 -41 56 -46 0 -5 34 -46 75 -90 43 -47 75 -91 75 -103 0 -11 12
-48 25 -81 14 -33 25 -66 25 -74 0 -7 10 -52 21 -100 18 -72 22 -115 21 -271
0 -169 -2 -192 -25 -265 -38 -121 -81 -209 -128 -260 l-42 -46 -23 22 c-13 12
-32 27 -42 33 -88 53 -302 236 -302 259 0 6 -24 36 -52 68 -71 77 -90 104
-126 174 -61 121 -91 192 -122 295 -17 58 -35 119 -40 135 -15 50 -39 258 -33
288 8 41 26 43 75 9 24 -16 59 -37 78 -47 19 -10 54 -35 77 -56 24 -22 49 -39
57 -39 8 0 39 -27 68 -61 29 -33 67 -69 83 -79 17 -10 46 -40 65 -65 19 -25
57 -72 83 -103 26 -31 66 -94 88 -140 38 -79 97 -170 110 -171 23 -3 25 138 4
221 -24 90 -110 243 -179 319 -80 86 -235 224 -304 272 -31 21 -73 54 -94 72
-20 19 -64 48 -96 64 -64 32 -87 54 -77 71 4 7 9 33 11 58 7 87 27 227 35 250
8 21 12 19 71 -42 35 -35 74 -78 87 -96z m-385 -856 c27 -30 63 -123 77 -199
18 -102 20 -134 26 -320 6 -201 -13 -456 -41 -565 -31 -117 -36 -137 -52 -215
-8 -44 -18 -87 -21 -95 -8 -19 -10 -27 -12 -40 -2 -18 -21 -11 -21 8 0 10 -4
22 -9 27 -16 18 -73 218 -87 305 -30 181 -36 297 -31 535 4 132 9 255 12 273
3 17 7 45 9 61 12 88 88 251 117 251 5 0 19 -12 33 -26z"/>
<path d="M2470 7166 c0 -20 -6 -51 -13 -69 -8 -18 -14 -49 -15 -71 -1 -39 -21
-107 -34 -116 -13 -10 -69 -132 -64 -138 4 -3 39 5 79 18 81 26 118 59 161
142 39 74 34 179 -9 210 -5 4 -20 8 -33 8 -13 0 -34 12 -47 26 l-25 27 0 -37z"/>
<path d="M3140 6943 c0 -25 57 -131 94 -174 17 -20 42 -52 55 -70 37 -53 119
-105 184 -119 94 -19 117 2 103 95 -8 52 -27 75 -62 75 -22 0 -24 -3 -19 -22
12 -39 11 -43 -16 -46 -36 -4 -193 119 -237 186 -48 75 -102 114 -102 75z"/>
<path d="M3397 6574 c-4 -4 -7 -14 -7 -23 0 -11 3 -12 11 -4 6 6 10 16 7 23
-2 6 -7 8 -11 4z"/>
<path d="M3318 6192 c-30 -10 -64 -33 -94 -63 -26 -27 -46 -50 -43 -52 2 -3
95 -8 206 -11 197 -7 202 -7 223 14 22 22 21 45 -5 86 -27 43 -192 58 -287 26z"/>
<path d="M7706 7141 c-26 -28 -45 -89 -46 -142 0 -39 6 -55 43 -102 23 -30 54
-63 69 -72 31 -18 128 -33 128 -19 -1 29 -24 102 -50 159 -16 36 -30 81 -30
99 0 30 4 36 40 50 22 9 40 20 40 26 0 13 -6 13 -28 -1 -14 -9 -29 -7 -65 5
-62 21 -80 20 -101 -3z"/>
<path d="M6012 6579 c-29 -74 -38 -125 -25 -141 6 -7 13 -25 17 -40 3 -15 16
-37 28 -48 19 -18 20 -22 8 -30 -8 -5 -26 -7 -40 -5 -13 2 -71 -2 -129 -10
-63 -9 -107 -11 -109 -6 -4 11 -53 4 -66 -9 -16 -16 1 -22 23 -10 12 6 21 7
21 2 0 -4 -15 -13 -34 -20 -19 -7 -45 -28 -59 -50 -32 -47 -73 -163 -64 -184
11 -30 43 -9 57 35 18 62 59 135 87 157 29 23 64 26 92 8 15 -9 28 -8 63 5 54
21 71 21 171 1 87 -18 147 -39 147 -53 0 -11 -54 -66 -118 -119 -43 -35 -52
-49 -52 -75 0 -39 31 -93 59 -102 60 -19 168 111 159 191 -2 19 -1 34 2 34 3
0 6 17 6 38 0 20 4 65 8 100 l7 62 -61 0 c-59 0 -63 2 -100 40 -52 54 -74 131
-65 223 3 37 3 67 -2 67 -4 0 -18 -27 -31 -61z"/>
<path d="M6814 6236 c-8 -33 -59 -80 -121 -111 -61 -30 -67 -37 -58 -72 l6
-25 192 4 c199 5 248 14 255 50 5 24 -37 58 -81 65 -21 3 -44 12 -52 19 -7 8
-17 14 -21 14 -4 0 -26 18 -50 40 -50 46 -61 49 -70 16z"/>
<path d="M4640 2463 c-77 -101 -120 -213 -135 -350 -8 -65 0 -122 15 -107 4 5
15 38 24 74 9 36 30 94 46 129 17 35 30 71 30 81 0 10 6 23 14 29 7 6 18 30
24 54 10 41 24 137 19 137 -1 0 -18 -21 -37 -47z"/>
<path d="M5673 2483 c28 -350 38 -392 104 -419 19 -8 37 -14 38 -12 2 2 -10
26 -27 53 -32 51 -34 63 -23 135 16 103 -37 300 -81 300 -13 0 -15 -10 -11
-57z"/>
<path d="M5570 9741 c-46 -14 -107 -59 -146 -107 -37 -45 -39 -51 -42 -129 -4
-75 -2 -83 22 -112 29 -34 115 -68 149 -58 80 24 97 45 97 125 0 37 5 52 20
63 24 17 46 67 55 129 7 43 5 49 -20 72 -29 27 -80 33 -135 17z"/>
<path d="M6129 9588 c-12 -24 -27 -50 -34 -58 -7 -8 -25 -48 -40 -89 -26 -68
-27 -76 -14 -114 18 -55 52 -93 96 -108 44 -14 180 -7 238 13 46 16 47 24 10
103 -13 28 -31 77 -41 110 -23 83 -80 158 -132 173 -57 17 -59 16 -83 -30z"/>
<path d="M3962 9585 c-42 -19 -56 -32 -68 -61 -15 -36 -15 -51 2 -131 7 -36
20 -42 39 -16 11 15 15 15 47 0 18 -9 54 -21 80 -28 39 -11 50 -10 79 4 70 35
94 70 84 120 -9 42 -18 52 -87 98 -67 46 -99 49 -176 14z"/>
<path d="M4394 9419 c-12 -14 -26 -18 -41 -15 -74 18 -79 18 -41 -4 36 -20 67
-54 72 -82 8 -37 19 -68 25 -68 7 0 30 61 38 103 4 20 0 32 -14 45 -11 9 -18
23 -16 30 7 18 -1 15 -23 -9z"/>
<path d="M3787 9393 c-4 -3 -7 -19 -7 -34 0 -15 -5 -31 -10 -34 -6 -3 -7 -18
-4 -32 4 -16 2 -28 -7 -34 -15 -9 -10 -27 34 -136 18 -46 24 -53 48 -53 37 0
43 22 41 143 -2 93 -3 100 -34 142 -32 43 -47 52 -61 38z"/>
<path d="M3213 9194 c-54 -11 -198 -69 -221 -89 -2 -2 20 -25 48 -51 28 -26
63 -72 77 -101 28 -56 47 -73 105 -92 30 -10 51 -9 112 3 41 9 77 16 80 16 26
0 10 224 -19 281 -28 52 -57 58 -182 33z"/>
<path d="M7015 9191 c-71 -8 -130 -34 -153 -69 -21 -32 -28 -178 -10 -211 20
-37 94 -71 155 -71 68 0 133 43 158 104 10 22 26 60 36 83 19 43 25 118 11
139 -22 33 -66 38 -197 25z"/>
<path d="M4664 8920 c3 -18 17 -56 30 -84 14 -28 30 -66 37 -84 6 -18 21 -38
33 -44 11 -6 37 -23 56 -38 59 -46 150 -47 150 -1 0 22 -42 100 -88 161 -44
59 -120 106 -191 117 -34 6 -34 6 -27 -27z"/>
<path d="M7499 8860 c-45 -13 -76 -39 -94 -79 -15 -35 -16 -50 -5 -147 6 -59
15 -115 20 -124 10 -19 51 -30 108 -30 38 0 135 59 154 93 5 11 34 50 64 89
83 108 72 150 -44 163 -34 4 -80 16 -102 26 -42 20 -60 22 -101 9z"/>
<path d="M2585 8829 c-49 -17 -93 -34 -98 -38 -10 -10 21 -70 45 -84 11 -7 29
-30 40 -52 39 -76 86 -123 144 -145 68 -25 85 -25 134 0 52 26 60 45 60 132 0
97 -13 137 -55 178 -33 32 -41 35 -108 37 -59 3 -88 -2 -162 -28z"/>
<path d="M2210 8458 c-19 -5 -42 -15 -50 -21 -26 -21 -55 -34 -87 -41 -94 -21
-75 -117 29 -147 27 -8 55 -27 76 -50 42 -48 130 -92 166 -83 32 8 84 59 102
101 18 42 24 111 13 142 -12 31 -56 83 -83 98 -25 15 -117 15 -166 1z"/>
<path d="M7892 8449 c-42 -16 -56 -28 -73 -61 -26 -51 -27 -134 -2 -209 18
-53 19 -54 66 -63 70 -12 148 19 215 87 70 72 114 148 110 189 -3 29 -8 34
-58 51 -85 29 -193 32 -258 6z"/>
<path d="M3886 8304 c-11 -28 -6 -236 6 -298 16 -73 63 -129 106 -124 35 4 50
54 51 164 1 118 -19 171 -85 228 -57 50 -69 54 -78 30z"/>
<path d="M6344 8293 c-9 -16 -25 -40 -35 -55 -49 -71 -51 -219 -4 -300 22 -39
32 -48 55 -48 36 0 45 13 71 95 26 85 24 202 -4 233 -16 17 -16 21 -2 32 21
17 19 47 -4 60 -33 17 -60 11 -77 -17z"/>
<path d="M7509 8176 c-61 -61 -68 -64 -143 -81 -59 -13 -104 -16 -176 -12 -54
3 -103 1 -110 -3 -12 -7 -15 -21 -19 -75 -1 -11 -20 -39 -42 -62 l-41 -43 38
0 c50 0 114 20 114 36 0 7 17 26 37 43 36 30 42 31 130 31 91 0 94 -1 130 -33
21 -18 53 -44 71 -57 19 -12 42 -36 52 -52 22 -37 36 -20 20 27 -14 42 -61
102 -106 134 -19 13 -34 28 -34 32 0 4 15 12 33 19 48 16 92 62 110 114 9 25
12 46 8 46 -5 0 -37 -29 -72 -64z"/>
<path d="M2790 8164 c-19 -9 -55 -16 -80 -16 -25 0 -48 -3 -53 -5 -16 -9 15
-42 46 -48 51 -10 147 37 147 72 0 17 -16 16 -60 -3z"/>
<path d="M2883 8051 c-52 -29 -64 -43 -61 -65 4 -28 58 -38 131 -24 55 12 94
8 216 -16 35 -8 71 -33 120 -84 56 -60 89 -113 107 -173 18 -58 65 -99 90 -78
19 16 11 91 -14 129 -9 14 -24 41 -33 61 -16 34 -112 139 -128 139 -12 0 -47
41 -64 76 -15 30 -20 32 -89 38 -198 17 -242 17 -275 -3z"/>
<path d="M8203 8031 c-63 -40 -92 -127 -69 -205 17 -55 124 -182 114 -135 -2
9 15 15 54 21 32 4 71 14 87 22 27 14 30 14 52 -7 42 -40 91 -98 87 -102 -2
-3 -35 -11 -74 -19 -54 -11 -75 -21 -96 -45 -33 -37 -36 -66 -9 -81 29 -15
122 -12 155 5 36 19 275 22 294 3 19 -19 15 12 -7 48 -24 39 -106 94 -141 94
-48 0 -79 57 -120 219 -13 49 -80 128 -144 168 -55 35 -140 41 -183 14z"/>
<path d="M1830 8031 c-53 -11 -76 -27 -94 -65 -20 -42 -20 -56 -1 -104 18 -43
79 -88 203 -150 l74 -36 67 34 66 35 3 66 c3 59 0 70 -24 98 -38 46 -129 103
-187 118 -55 14 -55 14 -107 4z"/>
<path d="M2702 7991 c-8 -4 -12 -19 -10 -32 2 -17 15 -29 51 -43 67 -28 81
-12 38 43 -32 40 -53 49 -79 32z"/>
<path d="M7165 7825 c-37 -50 -89 -96 -156 -139 -24 -15 -27 -15 -52 4 -14 11
-37 20 -51 20 -19 0 -26 5 -26 19 0 16 11 20 66 26 59 6 65 9 61 27 -4 13 -1
18 8 15 11 -5 65 40 65 54 0 9 -156 -9 -185 -21 -56 -26 -75 -50 -75 -97 0
-54 22 -88 71 -114 49 -25 152 -26 200 -2 19 9 63 29 99 44 l65 26 3 70 c3 80
-9 123 -35 123 -10 -1 -36 -25 -58 -55z"/>
<path d="M3009 7849 c-7 -36 -5 -108 4 -120 13 -18 60 -34 126 -44 29 -5 56
-18 81 -41 57 -52 102 -41 86 20 -11 45 -84 125 -139 152 -44 22 -155 45 -158
33z"/>
<path d="M1740 7675 c-19 -9 -41 -22 -50 -29 -8 -7 -39 -21 -69 -31 -35 -11
-55 -24 -58 -36 -3 -11 -13 -19 -23 -19 -10 0 -26 -7 -35 -16 -15 -16 -15 -19
12 -40 36 -28 155 -39 191 -17 18 11 40 13 87 8 68 -8 157 9 177 32 12 15 -49
114 -88 139 -35 23 -102 27 -144 9z"/>
<path d="M4723 7548 c-14 -23 -27 -44 -72 -124 -38 -67 -45 -87 -49 -151 -6
-96 13 -148 78 -206 57 -51 158 -103 219 -113 l43 -7 -22 44 c-13 24 -42 65
-65 90 -24 26 -58 75 -76 110 -37 74 -38 104 -8 221 23 89 17 141 -18 146 -12
2 -25 -3 -30 -10z"/>
<path d="M5566 7513 c-22 -64 -20 -94 9 -175 14 -38 25 -83 25 -99 0 -44 -43
-118 -102 -175 -50 -49 -125 -144 -114 -144 13 0 145 44 183 61 24 11 46 19
50 19 5 1 17 8 28 18 99 86 131 176 100 279 -10 32 -22 63 -27 69 -5 7 -22 38
-37 71 -29 60 -76 123 -91 123 -4 0 -15 -21 -24 -47z"/>
<path d="M8562 7348 c-7 -7 -12 -17 -12 -23 0 -6 -16 -27 -36 -46 -50 -48 -66
-82 -54 -114 14 -37 99 -119 150 -145 86 -44 218 -6 256 73 16 33 27 44 59 53
21 6 40 15 43 22 6 18 -26 70 -54 89 -40 26 -115 42 -146 31 -30 -11 -55 -1
-106 43 -34 30 -79 38 -100 17z"/>
<path d="M1590 7321 c-14 -5 -61 -27 -105 -49 -44 -22 -97 -47 -117 -55 -41
-17 -48 -36 -22 -58 9 -8 28 -31 41 -52 51 -82 176 -132 279 -112 54 10 150
110 159 166 11 66 -1 94 -57 130 -53 34 -128 47 -178 30z"/>
<path d="M8743 6811 c-21 -13 -35 -33 -42 -58 -14 -48 -14 -198 -1 -223 16
-29 86 -35 205 -16 57 9 125 16 151 16 55 0 55 -8 -8 131 -38 87 -48 100 -93
130 -65 43 -161 52 -212 20z"/>
<path d="M1390 6793 c-83 -13 -140 -58 -140 -110 0 -11 -13 -32 -30 -48 -37
-35 -38 -67 -4 -99 27 -24 128 -56 179 -56 18 0 25 -5 25 -20 0 -11 5 -20 12
-20 20 0 78 24 78 32 0 4 13 14 30 23 42 22 54 71 42 162 -17 123 -65 157
-192 136z"/>
<path d="M1960 6343 c-67 -7 -160 -66 -160 -100 0 -38 149 -55 274 -32 52 9
178 68 191 89 8 13 -52 28 -157 40 -54 5 -101 9 -105 8 -4 0 -24 -3 -43 -5z"/>
<path d="M8165 6341 c-44 -11 -84 -40 -101 -72 -7 -15 -14 -30 -14 -32 0 -15
132 -42 227 -46 18 -1 69 11 113 25 70 23 81 30 78 48 -2 13 -22 31 -58 50
-45 24 -69 30 -135 32 -44 2 -94 0 -110 -5z"/>
<path d="M8884 6340 c-34 -14 -84 -128 -84 -191 0 -103 146 -95 197 10 24 51
20 129 -10 158 -25 26 -72 37 -103 23z"/>
<path d="M1303 6330 c-73 -31 -59 -165 24 -230 42 -32 80 -26 125 20 44 47 47
73 18 130 -34 66 -112 104 -167 80z"/>
<path d="M1202 5790 c-83 -9 -106 -30 -98 -88 7 -51 19 -71 71 -112 31 -25 47
-30 89 -30 28 1 62 7 75 14 26 14 79 88 87 122 18 69 -81 111 -224 94z"/>
<path d="M1173 5308 l-28 -42 2 -168 c1 -96 9 -206 17 -256 19 -111 46 -267
52 -312 3 -19 14 -62 24 -95 10 -33 33 -109 51 -170 17 -60 45 -137 60 -171
16 -34 29 -70 29 -80 0 -29 177 -378 239 -473 31 -46 70 -107 87 -136 31 -52
133 -187 232 -306 99 -119 389 -401 440 -428 15 -8 52 -35 82 -61 65 -55 132
-100 147 -100 6 0 24 -10 40 -23 66 -53 213 -138 231 -133 41 13 132 175 119
210 -7 17 -84 71 -116 81 -14 4 -46 24 -72 44 -26 20 -71 52 -99 71 -29 19
-100 73 -159 119 -89 71 -144 120 -280 251 -36 35 -153 169 -201 230 -28 36
-60 76 -71 90 -73 90 -266 424 -325 563 -19 45 -39 86 -45 92 -5 5 -9 18 -9
30 0 11 -7 34 -16 50 -49 93 -123 365 -163 600 -23 134 -46 424 -36 455 5 14
1 22 -12 26 -10 4 -55 24 -100 45 -45 22 -84 39 -87 39 -3 0 -18 -19 -33 -42z"/>
<path d="M8923 5322 c-30 -19 -57 -145 -74 -342 -16 -195 -55 -399 -99 -525
-12 -33 -25 -76 -30 -95 -12 -52 -24 -87 -59 -170 -18 -41 -46 -109 -62 -150
-33 -83 -95 -207 -114 -230 -7 -8 -30 -46 -50 -85 -44 -85 -185 -295 -197
-295 -5 0 -12 -10 -17 -22 -20 -51 -106 -150 -284 -326 -146 -145 -205 -197
-285 -253 -35 -24 -95 -67 -135 -96 -40 -29 -99 -66 -132 -83 -33 -16 -72 -40
-87 -53 l-28 -22 42 -115 c22 -63 42 -116 43 -118 6 -7 106 38 148 66 25 18
49 32 54 32 4 0 26 16 47 35 22 19 46 35 53 35 24 0 103 54 171 117 14 13 29
23 33 23 37 0 519 483 519 520 0 6 24 37 53 68 55 59 74 85 117 158 14 23 38
62 54 86 76 115 99 155 174 308 45 91 101 217 126 280 58 151 134 398 146 474
5 34 16 93 24 131 20 91 46 322 53 455 4 83 1 113 -11 143 -9 21 -22 40 -29
42 -29 9 -153 14 -164 7z"/>
<path d="M6470 2372 c0 -47 91 -125 225 -192 25 -12 74 -47 120 -85 28 -22 63
-46 78 -53 28 -12 77 -16 77 -7 0 12 -93 145 -101 145 -5 0 -26 16 -46 36 -55
51 -175 124 -231 138 -26 7 -58 18 -69 25 -31 16 -53 14 -53 -7z"/>
<path d="M3615 2325 c-49 -24 -106 -59 -126 -77 -20 -18 -58 -51 -84 -72 -48
-40 -75 -86 -75 -131 0 -47 41 -32 127 48 45 40 97 78 119 86 21 7 69 32 106
54 57 35 69 47 74 75 5 25 2 36 -12 47 -26 20 -28 20 -129 -30z"/>
</g>
</svg>
